<svg width="279" height="40" viewBox="0 0 279 40" fill="none" xmlns="http://www.w3.org/2000/svg">
<path d="M274.482 0H4.51822C2.02288 0 0 1.79086 0 4V36C0 38.2091 2.02288 40 4.51822 40H274.482C276.977 40 279 38.2091 279 36V4C279 1.79086 276.977 0 274.482 0Z" fill="#1877F2"/>
<path d="M24.037 5.00087C21.5863 5.02378 19.2138 5.51893 17.0168 6.61914C8.93491 10.6667 6.57291 20.9827 11.7309 28.1161C12.8337 29.6414 14.2346 30.9273 15.8614 31.9178C17.5916 32.9714 19.4787 33.6797 21.4947 34V23.773L19.0393 23.7709L17.59 23.7393L17.5956 22.2317L17.5947 19.5699H21.4946C21.4946 16.5818 21.2309 13.0323 24.3838 11.3673C24.9256 11.0812 25.512 10.901 26.1171 10.7931C27.6221 10.5248 29.086 10.8416 30.595 10.8838V14.6666C29.6796 14.6666 28.5713 14.5123 27.7094 14.865C25.9344 15.5913 26.4059 18.0739 26.4059 19.5697H30.5951L29.6373 23.5691L26.4061 23.773V34C28.4147 33.707 30.3195 33.0216 32.0398 31.9734C39.8532 27.2133 41.4143 16.1736 35.0559 9.62334C33.5948 8.11822 31.8349 6.92228 29.8727 6.11278C28.1963 5.42126 26.3504 5.03165 24.5281 5.00243C24.364 4.9998 24.2004 4.99934 24.037 5.00087Z" fill="white"/>
<path d="M71.8984 23.9395C71.7402 25.293 71.2393 26.3389 70.3955 27.0771C69.5576 27.8096 68.4414 28.1758 67.0469 28.1758C65.5352 28.1758 64.3223 27.6338 63.4082 26.5498C62.5 25.4658 62.0459 24.0156 62.0459 22.1992V20.9688C62.0459 19.7793 62.2568 18.7334 62.6787 17.8311C63.1064 16.9287 63.71 16.2373 64.4893 15.7568C65.2686 15.2705 66.1709 15.0273 67.1963 15.0273C68.5557 15.0273 69.6455 15.4082 70.4658 16.1699C71.2861 16.9258 71.7637 17.9746 71.8984 19.3164H70.2021C70.0557 18.2969 69.7363 17.5586 69.2441 17.1016C68.7578 16.6445 68.0752 16.416 67.1963 16.416C66.1182 16.416 65.2715 16.8145 64.6562 17.6113C64.0469 18.4082 63.7422 19.542 63.7422 21.0127V22.252C63.7422 23.6406 64.0322 24.7451 64.6123 25.5654C65.1924 26.3857 66.0039 26.7959 67.0469 26.7959C67.9844 26.7959 68.7021 26.585 69.2002 26.1631C69.7041 25.7354 70.0381 24.9941 70.2021 23.9395H71.8984ZM73.5244 23.1572C73.5244 22.2256 73.7061 21.3877 74.0693 20.6436C74.4385 19.8994 74.9482 19.3252 75.5986 18.9209C76.2549 18.5166 77.002 18.3145 77.8398 18.3145C79.1348 18.3145 80.1807 18.7627 80.9775 19.6592C81.7803 20.5557 82.1816 21.748 82.1816 23.2363V23.3506C82.1816 24.2764 82.0029 25.1084 81.6455 25.8467C81.2939 26.5791 80.7871 27.1504 80.125 27.5605C79.4688 27.9707 78.7129 28.1758 77.8574 28.1758C76.5684 28.1758 75.5225 27.7275 74.7197 26.8311C73.9229 25.9346 73.5244 24.748 73.5244 23.2715V23.1572ZM75.1592 23.3506C75.1592 24.4053 75.4023 25.252 75.8887 25.8906C76.3809 26.5293 77.0371 26.8486 77.8574 26.8486C78.6836 26.8486 79.3398 26.5264 79.8262 25.8818C80.3125 25.2314 80.5557 24.3232 80.5557 23.1572C80.5557 22.1143 80.3066 21.2705 79.8086 20.626C79.3164 19.9756 78.6602 19.6504 77.8398 19.6504C77.0371 19.6504 76.3896 19.9697 75.8975 20.6084C75.4053 21.2471 75.1592 22.1611 75.1592 23.3506ZM85.7588 18.4902L85.8115 19.6855C86.5381 18.7715 87.4873 18.3145 88.6592 18.3145C90.6689 18.3145 91.6826 19.4482 91.7002 21.7158V28H90.0742V21.707C90.0684 21.0215 89.9102 20.5146 89.5996 20.1865C89.2949 19.8584 88.8174 19.6943 88.167 19.6943C87.6396 19.6943 87.1768 19.835 86.7783 20.1162C86.3799 20.3975 86.0693 20.7666 85.8467 21.2236V28H84.2207V18.4902H85.7588ZM96.3584 16.1875V18.4902H98.1338V19.7471H96.3584V25.6445C96.3584 26.0254 96.4375 26.3125 96.5957 26.5059C96.7539 26.6934 97.0234 26.7871 97.4043 26.7871C97.5918 26.7871 97.8496 26.752 98.1777 26.6816V28C97.75 28.1172 97.334 28.1758 96.9297 28.1758C96.2031 28.1758 95.6553 27.9561 95.2861 27.5166C94.917 27.0771 94.7324 26.4531 94.7324 25.6445V19.7471H93.001V18.4902H94.7324V16.1875H96.3584ZM101.808 28H100.182V18.4902H101.808V28ZM100.05 15.9678C100.05 15.7041 100.129 15.4814 100.287 15.2998C100.451 15.1182 100.691 15.0273 101.008 15.0273C101.324 15.0273 101.564 15.1182 101.729 15.2998C101.893 15.4814 101.975 15.7041 101.975 15.9678C101.975 16.2314 101.893 16.4512 101.729 16.627C101.564 16.8027 101.324 16.8906 101.008 16.8906C100.691 16.8906 100.451 16.8027 100.287 16.627C100.129 16.4512 100.05 16.2314 100.05 15.9678ZM105.956 18.4902L106.009 19.6855C106.735 18.7715 107.685 18.3145 108.856 18.3145C110.866 18.3145 111.88 19.4482 111.897 21.7158V28H110.271V21.707C110.266 21.0215 110.107 20.5146 109.797 20.1865C109.492 19.8584 109.015 19.6943 108.364 19.6943C107.837 19.6943 107.374 19.835 106.976 20.1162C106.577 20.3975 106.267 20.7666 106.044 21.2236V28H104.418V18.4902H105.956ZM120.221 27.0596C119.588 27.8037 118.659 28.1758 117.435 28.1758C116.421 28.1758 115.647 27.8828 115.114 27.2969C114.587 26.7051 114.32 25.832 114.314 24.6777V18.4902H115.94V24.6338C115.94 26.0752 116.526 26.7959 117.698 26.7959C118.94 26.7959 119.767 26.333 120.177 25.4072V18.4902H121.803V28H120.256L120.221 27.0596ZM128.228 28.1758C126.938 28.1758 125.89 27.7539 125.081 26.9102C124.272 26.0605 123.868 24.9268 123.868 23.5088V23.21C123.868 22.2666 124.047 21.4258 124.404 20.6875C124.768 19.9434 125.271 19.3633 125.916 18.9473C126.566 18.5254 127.27 18.3145 128.025 18.3145C129.262 18.3145 130.223 18.7217 130.908 19.5361C131.594 20.3506 131.937 21.5166 131.937 23.0342V23.7109H125.494C125.518 24.6484 125.79 25.4072 126.312 25.9873C126.839 26.5615 127.507 26.8486 128.315 26.8486C128.89 26.8486 129.376 26.7314 129.774 26.4971C130.173 26.2627 130.521 25.9521 130.82 25.5654L131.813 26.3389C131.017 27.5635 129.821 28.1758 128.228 28.1758ZM128.025 19.6504C127.369 19.6504 126.818 19.8906 126.373 20.3711C125.928 20.8457 125.652 21.5137 125.547 22.375H130.311V22.252C130.264 21.4258 130.041 20.7871 129.643 20.3359C129.244 19.8789 128.705 19.6504 128.025 19.6504ZM141.306 23.9658L141.552 25.6533L141.912 24.1328L144.443 15.2031H145.867L148.337 24.1328L148.688 25.6797L148.961 23.957L150.947 15.2031H152.644L149.541 28H148.003L145.366 18.6748L145.164 17.6992L144.962 18.6748L142.229 28H140.69L137.597 15.2031H139.284L141.306 23.9658ZM156.036 28H154.41V18.4902H156.036V28ZM154.278 15.9678C154.278 15.7041 154.357 15.4814 154.516 15.2998C154.68 15.1182 154.92 15.0273 155.236 15.0273C155.553 15.0273 155.793 15.1182 155.957 15.2998C156.121 15.4814 156.203 15.7041 156.203 15.9678C156.203 16.2314 156.121 16.4512 155.957 16.627C155.793 16.8027 155.553 16.8906 155.236 16.8906C154.92 16.8906 154.68 16.8027 154.516 16.627C154.357 16.4512 154.278 16.2314 154.278 15.9678ZM160.853 16.1875V18.4902H162.628V19.7471H160.853V25.6445C160.853 26.0254 160.932 26.3125 161.09 26.5059C161.248 26.6934 161.518 26.7871 161.898 26.7871C162.086 26.7871 162.344 26.752 162.672 26.6816V28C162.244 28.1172 161.828 28.1758 161.424 28.1758C160.697 28.1758 160.149 27.9561 159.78 27.5166C159.411 27.0771 159.227 26.4531 159.227 25.6445V19.7471H157.495V18.4902H159.227V16.1875H160.853ZM166.161 19.6416C166.882 18.7568 167.819 18.3145 168.974 18.3145C170.983 18.3145 171.997 19.4482 172.015 21.7158V28H170.389V21.707C170.383 21.0215 170.225 20.5146 169.914 20.1865C169.609 19.8584 169.132 19.6943 168.481 19.6943C167.954 19.6943 167.491 19.835 167.093 20.1162C166.694 20.3975 166.384 20.7666 166.161 21.2236V28H164.535V14.5H166.161V19.6416ZM186.227 22.3486H180.856V28H179.169V15.2031H187.097V16.5918H180.856V20.9688H186.227V22.3486ZM194.436 28C194.342 27.8125 194.266 27.4785 194.207 26.998C193.451 27.7832 192.549 28.1758 191.5 28.1758C190.562 28.1758 189.792 27.9121 189.188 27.3848C188.591 26.8516 188.292 26.1777 188.292 25.3633C188.292 24.373 188.667 23.6055 189.417 23.0605C190.173 22.5098 191.233 22.2344 192.599 22.2344H194.181V21.4873C194.181 20.9189 194.011 20.4678 193.671 20.1338C193.331 19.7939 192.83 19.624 192.168 19.624C191.588 19.624 191.102 19.7705 190.709 20.0635C190.316 20.3564 190.12 20.7109 190.12 21.127H188.485C188.485 20.6523 188.652 20.1953 188.986 19.7559C189.326 19.3105 189.783 18.959 190.357 18.7012C190.938 18.4434 191.573 18.3145 192.265 18.3145C193.36 18.3145 194.219 18.5898 194.84 19.1406C195.461 19.6855 195.783 20.4385 195.807 21.3994V25.7764C195.807 26.6494 195.918 27.3438 196.141 27.8594V28H194.436ZM191.737 26.7607C192.247 26.7607 192.73 26.6289 193.188 26.3652C193.645 26.1016 193.976 25.7588 194.181 25.3369V23.3857H192.906C190.914 23.3857 189.918 23.9688 189.918 25.1348C189.918 25.6445 190.088 26.043 190.428 26.3301C190.768 26.6172 191.204 26.7607 191.737 26.7607ZM202.17 26.8486C202.75 26.8486 203.257 26.6729 203.69 26.3213C204.124 25.9697 204.364 25.5303 204.411 25.0029H205.949C205.92 25.5479 205.732 26.0664 205.387 26.5586C205.041 27.0508 204.578 27.4434 203.998 27.7363C203.424 28.0293 202.814 28.1758 202.17 28.1758C200.875 28.1758 199.844 27.7451 199.076 26.8838C198.314 26.0166 197.934 24.833 197.934 23.333V23.0605C197.934 22.1348 198.104 21.3115 198.443 20.5908C198.783 19.8701 199.27 19.3105 199.902 18.9121C200.541 18.5137 201.294 18.3145 202.161 18.3145C203.228 18.3145 204.112 18.6338 204.815 19.2725C205.524 19.9111 205.902 20.7402 205.949 21.7598H204.411C204.364 21.1445 204.13 20.6406 203.708 20.248C203.292 19.8496 202.776 19.6504 202.161 19.6504C201.335 19.6504 200.693 19.9492 200.236 20.5469C199.785 21.1387 199.56 21.9971 199.56 23.1221V23.4297C199.56 24.5254 199.785 25.3691 200.236 25.9609C200.688 26.5527 201.332 26.8486 202.17 26.8486ZM211.724 28.1758C210.435 28.1758 209.386 27.7539 208.577 26.9102C207.769 26.0605 207.364 24.9268 207.364 23.5088V23.21C207.364 22.2666 207.543 21.4258 207.9 20.6875C208.264 19.9434 208.768 19.3633 209.412 18.9473C210.062 18.5254 210.766 18.3145 211.521 18.3145C212.758 18.3145 213.719 18.7217 214.404 19.5361C215.09 20.3506 215.433 21.5166 215.433 23.0342V23.7109H208.99C209.014 24.6484 209.286 25.4072 209.808 25.9873C210.335 26.5615 211.003 26.8486 211.812 26.8486C212.386 26.8486 212.872 26.7314 213.271 26.4971C213.669 26.2627 214.018 25.9521 214.316 25.5654L215.31 26.3389C214.513 27.5635 213.317 28.1758 211.724 28.1758ZM211.521 19.6504C210.865 19.6504 210.314 19.8906 209.869 20.3711C209.424 20.8457 209.148 21.5137 209.043 22.375H213.807V22.252C213.76 21.4258 213.537 20.7871 213.139 20.3359C212.74 19.8789 212.201 19.6504 211.521 19.6504ZM225.373 23.3506C225.373 24.8037 225.039 25.9727 224.371 26.8574C223.703 27.7363 222.807 28.1758 221.682 28.1758C220.48 28.1758 219.552 27.751 218.896 26.9014L218.816 28H217.322V14.5H218.948V19.5361C219.604 18.7217 220.51 18.3145 221.664 18.3145C222.818 18.3145 223.724 18.751 224.38 19.624C225.042 20.4971 225.373 21.6924 225.373 23.21V23.3506ZM223.747 23.166C223.747 22.0586 223.533 21.2031 223.105 20.5996C222.678 19.9961 222.062 19.6943 221.26 19.6943C220.188 19.6943 219.417 20.1924 218.948 21.1885V25.3018C219.446 26.2979 220.223 26.7959 221.277 26.7959C222.057 26.7959 222.663 26.4941 223.097 25.8906C223.53 25.2871 223.747 24.3789 223.747 23.166ZM226.999 23.1572C226.999 22.2256 227.181 21.3877 227.544 20.6436C227.913 19.8994 228.423 19.3252 229.073 18.9209C229.729 18.5166 230.477 18.3145 231.314 18.3145C232.609 18.3145 233.655 18.7627 234.452 19.6592C235.255 20.5557 235.656 21.748 235.656 23.2363V23.3506C235.656 24.2764 235.478 25.1084 235.12 25.8467C234.769 26.5791 234.262 27.1504 233.6 27.5605C232.943 27.9707 232.188 28.1758 231.332 28.1758C230.043 28.1758 228.997 27.7275 228.194 26.8311C227.397 25.9346 226.999 24.748 226.999 23.2715V23.1572ZM228.634 23.3506C228.634 24.4053 228.877 25.252 229.363 25.8906C229.855 26.5293 230.512 26.8486 231.332 26.8486C232.158 26.8486 232.814 26.5264 233.301 25.8818C233.787 25.2314 234.03 24.3232 234.03 23.1572C234.03 22.1143 233.781 21.2705 233.283 20.626C232.791 19.9756 232.135 19.6504 231.314 19.6504C230.512 19.6504 229.864 19.9697 229.372 20.6084C228.88 21.2471 228.634 22.1611 228.634 23.3506ZM237.265 23.1572C237.265 22.2256 237.446 21.3877 237.81 20.6436C238.179 19.8994 238.688 19.3252 239.339 18.9209C239.995 18.5166 240.742 18.3145 241.58 18.3145C242.875 18.3145 243.921 18.7627 244.718 19.6592C245.521 20.5557 245.922 21.748 245.922 23.2363V23.3506C245.922 24.2764 245.743 25.1084 245.386 25.8467C245.034 26.5791 244.527 27.1504 243.865 27.5605C243.209 27.9707 242.453 28.1758 241.598 28.1758C240.309 28.1758 239.263 27.7275 238.46 26.8311C237.663 25.9346 237.265 24.748 237.265 23.2715V23.1572ZM238.899 23.3506C238.899 24.4053 239.143 25.252 239.629 25.8906C240.121 26.5293 240.777 26.8486 241.598 26.8486C242.424 26.8486 243.08 26.5264 243.566 25.8818C244.053 25.2314 244.296 24.3232 244.296 23.1572C244.296 22.1143 244.047 21.2705 243.549 20.626C243.057 19.9756 242.4 19.6504 241.58 19.6504C240.777 19.6504 240.13 19.9697 239.638 20.6084C239.146 21.2471 238.899 22.1611 238.899 23.3506ZM250.615 23.5967L249.596 24.6602V28H247.97V14.5H249.596V22.665L250.466 21.6191L253.428 18.4902H255.405L251.705 22.4629L255.836 28H253.929L250.615 23.5967Z" fill="white"/>
</svg>
