<svg width="289" height="50" viewBox="0 0 289 50" fill="none" xmlns="http://www.w3.org/2000/svg">
<g filter="url(#filter0_d)">
<rect x="3" y="3" width="279" height="40" rx="2" fill="white"/>
</g>
<g filter="url(#filter1_dd)">
<path d="M42.7712 3H5.09322C3.93717 3 3 3.89543 3 5V41C3 42.1046 3.93717 43 5.09322 43H42.7712C43.9272 43 44.8644 42.1046 44.8644 41V5C44.8644 3.89543 43.9272 3 42.7712 3Z" fill="#EEEEEE"/>
</g>
<path fill-rule="evenodd" clip-rule="evenodd" d="M32.9749 23.2046C32.9749 22.5664 32.915 21.9527 32.8036 21.3636H23.9322V24.845H29.0016C28.7832 25.97 28.1196 26.9232 27.122 27.5614V29.8196H30.1662C31.9473 28.2527 32.9749 25.9455 32.9749 23.2046Z" fill="#4285F4"/>
<path fill-rule="evenodd" clip-rule="evenodd" d="M23.9322 32C26.4755 32 28.6077 31.1941 30.1662 29.8196L27.122 27.5614C26.2785 28.1014 25.1995 28.4205 23.9322 28.4205C21.4788 28.4205 19.4023 26.8373 18.6616 24.71H15.5146V27.0418C17.0645 29.9832 20.25 32 23.9322 32Z" fill="#34A853"/>
<path fill-rule="evenodd" clip-rule="evenodd" d="M18.6616 24.71C18.4732 24.17 18.3661 23.5932 18.3661 23C18.3661 22.4068 18.4732 21.83 18.6616 21.29V18.9582H15.5146C14.8766 20.1732 14.5127 21.5477 14.5127 23C14.5127 24.4523 14.8766 25.8268 15.5146 27.0418L18.6616 24.71Z" fill="#FBBC05"/>
<path fill-rule="evenodd" clip-rule="evenodd" d="M23.9322 17.5795C25.3151 17.5795 26.5568 18.0336 27.533 18.9255L30.2347 16.3441C28.6034 14.8918 26.4712 14 23.9322 14C20.25 14 17.0645 16.0168 15.5146 18.9582L18.6616 21.29C19.4023 19.1627 21.4788 17.5795 23.9322 17.5795Z" fill="#EA4335"/>
<path d="M79.0654 23.834C78.9365 25.1992 78.4326 26.2656 77.5537 27.0332C76.6748 27.7949 75.5059 28.1758 74.0469 28.1758C73.0273 28.1758 72.1279 27.9355 71.3486 27.4551C70.5752 26.9688 69.9775 26.2803 69.5557 25.3896C69.1338 24.499 68.9141 23.4648 68.8965 22.2871V21.0918C68.8965 19.8848 69.1104 18.8213 69.5381 17.9014C69.9658 16.9814 70.5781 16.2725 71.375 15.7744C72.1777 15.2764 73.1035 15.0273 74.1523 15.0273C75.5645 15.0273 76.7012 15.4111 77.5625 16.1787C78.4238 16.9463 78.9248 18.0303 79.0654 19.4307H76.8506C76.7451 18.5107 76.4756 17.8486 76.042 17.4443C75.6143 17.0342 74.9844 16.8291 74.1523 16.8291C73.1855 16.8291 72.4414 17.1836 71.9199 17.8926C71.4043 18.5957 71.1406 19.6299 71.1289 20.9951V22.1289C71.1289 23.5117 71.375 24.5664 71.8672 25.293C72.3652 26.0195 73.0918 26.3828 74.0469 26.3828C74.9199 26.3828 75.5762 26.1865 76.0156 25.7939C76.4551 25.4014 76.7334 24.748 76.8506 23.834H79.0654ZM80.4541 23.1572C80.4541 22.2256 80.6387 21.3877 81.0078 20.6436C81.377 19.8936 81.8955 19.3193 82.5635 18.9209C83.2314 18.5166 83.999 18.3145 84.8662 18.3145C86.1494 18.3145 87.1895 18.7275 87.9863 19.5537C88.7891 20.3799 89.2227 21.4756 89.2871 22.8408L89.2959 23.3418C89.2959 24.2793 89.1143 25.1172 88.751 25.8555C88.3936 26.5938 87.8779 27.165 87.2041 27.5693C86.5361 27.9736 85.7627 28.1758 84.8838 28.1758C83.542 28.1758 82.4668 27.7305 81.6582 26.8398C80.8555 25.9434 80.4541 24.751 80.4541 23.2627V23.1572ZM82.5898 23.3418C82.5898 24.3203 82.792 25.0879 83.1963 25.6445C83.6006 26.1953 84.1631 26.4707 84.8838 26.4707C85.6045 26.4707 86.1641 26.1895 86.5625 25.627C86.9668 25.0645 87.1689 24.2412 87.1689 23.1572C87.1689 22.1963 86.9609 21.4346 86.5449 20.8721C86.1348 20.3096 85.5752 20.0283 84.8662 20.0283C84.1689 20.0283 83.6152 20.3066 83.2051 20.8633C82.7949 21.4141 82.5898 22.2402 82.5898 23.3418ZM93.084 18.4902L93.1455 19.5889C93.8486 18.7393 94.7715 18.3145 95.9141 18.3145C97.8945 18.3145 98.9023 19.4482 98.9375 21.7158V28H96.8018V21.8389C96.8018 21.2354 96.6699 20.79 96.4062 20.5029C96.1484 20.21 95.7236 20.0635 95.1318 20.0635C94.2705 20.0635 93.6289 20.4531 93.207 21.2324V28H91.0713V18.4902H93.084ZM103.798 16.1787V18.4902H105.477V20.0723H103.798V25.3809C103.798 25.7441 103.868 26.0078 104.009 26.1719C104.155 26.3301 104.413 26.4092 104.782 26.4092C105.028 26.4092 105.277 26.3799 105.529 26.3213V27.9736C105.043 28.1084 104.574 28.1758 104.123 28.1758C102.482 28.1758 101.662 27.2705 101.662 25.46V20.0723H100.098V18.4902H101.662V16.1787H103.798ZM109.388 28H107.252V18.4902H109.388V28ZM107.12 16.0205C107.12 15.6924 107.223 15.4199 107.428 15.2031C107.639 14.9863 107.938 14.8779 108.324 14.8779C108.711 14.8779 109.01 14.9863 109.221 15.2031C109.432 15.4199 109.537 15.6924 109.537 16.0205C109.537 16.3428 109.432 16.6123 109.221 16.8291C109.01 17.04 108.711 17.1455 108.324 17.1455C107.938 17.1455 107.639 17.04 107.428 16.8291C107.223 16.6123 107.12 16.3428 107.12 16.0205ZM113.703 18.4902L113.765 19.5889C114.468 18.7393 115.391 18.3145 116.533 18.3145C118.514 18.3145 119.521 19.4482 119.557 21.7158V28H117.421V21.8389C117.421 21.2354 117.289 20.79 117.025 20.5029C116.768 20.21 116.343 20.0635 115.751 20.0635C114.89 20.0635 114.248 20.4531 113.826 21.2324V28H111.69V18.4902H113.703ZM127.502 27.0684C126.875 27.8066 125.984 28.1758 124.83 28.1758C123.799 28.1758 123.017 27.874 122.483 27.2705C121.956 26.667 121.692 25.7939 121.692 24.6514V18.4902H123.828V24.625C123.828 25.832 124.329 26.4355 125.331 26.4355C126.368 26.4355 127.068 26.0635 127.432 25.3193V18.4902H129.567V28H127.555L127.502 27.0684ZM135.931 28.1758C134.577 28.1758 133.479 27.751 132.635 26.9014C131.797 26.0459 131.378 24.9092 131.378 23.4912V23.2275C131.378 22.2783 131.56 21.4316 131.923 20.6875C132.292 19.9375 132.808 19.3545 133.47 18.9385C134.132 18.5225 134.87 18.3145 135.685 18.3145C136.979 18.3145 137.979 18.7275 138.682 19.5537C139.391 20.3799 139.745 21.5488 139.745 23.0605V23.9219H133.531C133.596 24.707 133.856 25.3281 134.313 25.7852C134.776 26.2422 135.356 26.4707 136.054 26.4707C137.032 26.4707 137.829 26.0752 138.444 25.2842L139.596 26.3828C139.215 26.9512 138.705 27.3936 138.066 27.71C137.434 28.0205 136.722 28.1758 135.931 28.1758ZM135.676 20.0283C135.09 20.0283 134.615 20.2334 134.252 20.6436C133.895 21.0537 133.666 21.625 133.566 22.3574H137.636V22.1992C137.589 21.4844 137.398 20.9453 137.064 20.582C136.73 20.2129 136.268 20.0283 135.676 20.0283ZM154.247 25.0557L155.759 18.4902H157.842L155.249 28H153.491L151.452 21.4697L149.448 28H147.69L145.089 18.4902H147.172L148.71 24.9854L150.661 18.4902H152.27L154.247 25.0557ZM161.542 28H159.406V18.4902H161.542V28ZM159.274 16.0205C159.274 15.6924 159.377 15.4199 159.582 15.2031C159.793 14.9863 160.092 14.8779 160.479 14.8779C160.865 14.8779 161.164 14.9863 161.375 15.2031C161.586 15.4199 161.691 15.6924 161.691 16.0205C161.691 16.3428 161.586 16.6123 161.375 16.8291C161.164 17.04 160.865 17.1455 160.479 17.1455C160.092 17.1455 159.793 17.04 159.582 16.8291C159.377 16.6123 159.274 16.3428 159.274 16.0205ZM166.552 16.1787V18.4902H168.23V20.0723H166.552V25.3809C166.552 25.7441 166.622 26.0078 166.763 26.1719C166.909 26.3301 167.167 26.4092 167.536 26.4092C167.782 26.4092 168.031 26.3799 168.283 26.3213V27.9736C167.797 28.1084 167.328 28.1758 166.877 28.1758C165.236 28.1758 164.416 27.2705 164.416 25.46V20.0723H162.852V18.4902H164.416V16.1787H166.552ZM171.975 19.5273C172.672 18.7188 173.554 18.3145 174.62 18.3145C176.647 18.3145 177.676 19.4717 177.705 21.7861V28H175.569V21.8652C175.569 21.209 175.426 20.7461 175.139 20.4766C174.857 20.2012 174.441 20.0635 173.891 20.0635C173.035 20.0635 172.396 20.4443 171.975 21.2061V28H169.839V14.5H171.975V19.5273ZM194.369 26.3389C193.906 26.9424 193.265 27.3994 192.444 27.71C191.624 28.0205 190.692 28.1758 189.649 28.1758C188.577 28.1758 187.628 27.9326 186.802 27.4463C185.976 26.96 185.337 26.2656 184.886 25.3633C184.44 24.4551 184.209 23.3975 184.191 22.1904V21.1885C184.191 19.2549 184.654 17.7461 185.58 16.6621C186.506 15.5723 187.798 15.0273 189.456 15.0273C190.88 15.0273 192.011 15.3789 192.849 16.082C193.687 16.7852 194.19 17.7988 194.36 19.123H192.181C191.935 17.582 191.041 16.8115 189.5 16.8115C188.504 16.8115 187.745 17.1719 187.224 17.8926C186.708 18.6074 186.441 19.6592 186.424 21.0479V22.0322C186.424 23.415 186.714 24.4902 187.294 25.2578C187.88 26.0195 188.691 26.4004 189.729 26.4004C190.865 26.4004 191.674 26.1426 192.154 25.627V23.1221H189.518V21.4346H194.369V26.3389ZM196.206 23.1572C196.206 22.2256 196.391 21.3877 196.76 20.6436C197.129 19.8936 197.647 19.3193 198.315 18.9209C198.983 18.5166 199.751 18.3145 200.618 18.3145C201.901 18.3145 202.941 18.7275 203.738 19.5537C204.541 20.3799 204.975 21.4756 205.039 22.8408L205.048 23.3418C205.048 24.2793 204.866 25.1172 204.503 25.8555C204.146 26.5938 203.63 27.165 202.956 27.5693C202.288 27.9736 201.515 28.1758 200.636 28.1758C199.294 28.1758 198.219 27.7305 197.41 26.8398C196.607 25.9434 196.206 24.751 196.206 23.2627V23.1572ZM198.342 23.3418C198.342 24.3203 198.544 25.0879 198.948 25.6445C199.353 26.1953 199.915 26.4707 200.636 26.4707C201.356 26.4707 201.916 26.1895 202.314 25.627C202.719 25.0645 202.921 24.2412 202.921 23.1572C202.921 22.1963 202.713 21.4346 202.297 20.8721C201.887 20.3096 201.327 20.0283 200.618 20.0283C199.921 20.0283 199.367 20.3066 198.957 20.8633C198.547 21.4141 198.342 22.2402 198.342 23.3418ZM206.454 23.1572C206.454 22.2256 206.639 21.3877 207.008 20.6436C207.377 19.8936 207.896 19.3193 208.563 18.9209C209.231 18.5166 209.999 18.3145 210.866 18.3145C212.149 18.3145 213.189 18.7275 213.986 19.5537C214.789 20.3799 215.223 21.4756 215.287 22.8408L215.296 23.3418C215.296 24.2793 215.114 25.1172 214.751 25.8555C214.394 26.5938 213.878 27.165 213.204 27.5693C212.536 27.9736 211.763 28.1758 210.884 28.1758C209.542 28.1758 208.467 27.7305 207.658 26.8398C206.855 25.9434 206.454 24.751 206.454 23.2627V23.1572ZM208.59 23.3418C208.59 24.3203 208.792 25.0879 209.196 25.6445C209.601 26.1953 210.163 26.4707 210.884 26.4707C211.604 26.4707 212.164 26.1895 212.562 25.627C212.967 25.0645 213.169 24.2412 213.169 23.1572C213.169 22.1963 212.961 21.4346 212.545 20.8721C212.135 20.3096 211.575 20.0283 210.866 20.0283C210.169 20.0283 209.615 20.3066 209.205 20.8633C208.795 21.4141 208.59 22.2402 208.59 23.3418ZM216.729 23.1748C216.729 21.6982 217.074 20.5205 217.766 19.6416C218.463 18.7568 219.386 18.3145 220.534 18.3145C221.618 18.3145 222.471 18.6924 223.092 19.4482L223.188 18.4902H225.113V27.71C225.113 28.958 224.724 29.9424 223.944 30.6631C223.171 31.3838 222.125 31.7441 220.807 31.7441C220.109 31.7441 219.427 31.5977 218.759 31.3047C218.097 31.0176 217.593 30.6396 217.247 30.1709L218.258 28.8877C218.914 29.667 219.723 30.0566 220.684 30.0566C221.393 30.0566 221.952 29.8633 222.362 29.4766C222.772 29.0957 222.978 28.5332 222.978 27.7891V27.1475C222.362 27.833 221.542 28.1758 220.517 28.1758C219.403 28.1758 218.492 27.7334 217.783 26.8486C217.08 25.9639 216.729 24.7393 216.729 23.1748ZM218.855 23.3594C218.855 24.3145 219.049 25.0674 219.436 25.6182C219.828 26.1631 220.37 26.4355 221.062 26.4355C221.923 26.4355 222.562 26.0664 222.978 25.3281V21.1445C222.573 20.4238 221.94 20.0635 221.079 20.0635C220.376 20.0635 219.828 20.3418 219.436 20.8984C219.049 21.4551 218.855 22.2754 218.855 23.3594ZM229.587 28H227.451V14.5H229.587V28ZM236.108 28.1758C234.755 28.1758 233.656 27.751 232.812 26.9014C231.975 26.0459 231.556 24.9092 231.556 23.4912V23.2275C231.556 22.2783 231.737 21.4316 232.101 20.6875C232.47 19.9375 232.985 19.3545 233.647 18.9385C234.31 18.5225 235.048 18.3145 235.862 18.3145C237.157 18.3145 238.156 18.7275 238.859 19.5537C239.568 20.3799 239.923 21.5488 239.923 23.0605V23.9219H233.709C233.773 24.707 234.034 25.3281 234.491 25.7852C234.954 26.2422 235.534 26.4707 236.231 26.4707C237.21 26.4707 238.007 26.0752 238.622 25.2842L239.773 26.3828C239.393 26.9512 238.883 27.3936 238.244 27.71C237.611 28.0205 236.899 28.1758 236.108 28.1758ZM235.854 20.0283C235.268 20.0283 234.793 20.2334 234.43 20.6436C234.072 21.0537 233.844 21.625 233.744 22.3574H237.813V22.1992C237.767 21.4844 237.576 20.9453 237.242 20.582C236.908 20.2129 236.445 20.0283 235.854 20.0283Z" fill="black"/>
<defs>
<filter id="filter0_d" x="0" y="0" width="289" height="50" filterUnits="userSpaceOnUse" color-interpolation-filters="sRGB">
<feFlood flood-opacity="0" result="BackgroundImageFix"/>
<feColorMatrix in="SourceAlpha" type="matrix" values="0 0 0 0 0 0 0 0 0 0 0 0 0 0 0 0 0 0 127 0"/>
<feOffset dx="2" dy="2"/>
<feGaussianBlur stdDeviation="2.5"/>
<feColorMatrix type="matrix" values="0 0 0 0 0 0 0 0 0 0 0 0 0 0 0 0 0 0 0.25 0"/>
<feBlend mode="normal" in2="BackgroundImageFix" result="effect1_dropShadow"/>
<feBlend mode="normal" in="SourceGraphic" in2="effect1_dropShadow" result="shape"/>
</filter>
<filter id="filter1_dd" x="2" y="2" width="43.8644" height="43" filterUnits="userSpaceOnUse" color-interpolation-filters="sRGB">
<feFlood flood-opacity="0" result="BackgroundImageFix"/>
<feColorMatrix in="SourceAlpha" type="matrix" values="0 0 0 0 0 0 0 0 0 0 0 0 0 0 0 0 0 0 127 0"/>
<feOffset dy="1"/>
<feGaussianBlur stdDeviation="0.5"/>
<feColorMatrix type="matrix" values="0 0 0 0 0 0 0 0 0 0 0 0 0 0 0 0 0 0 0.168 0"/>
<feBlend mode="normal" in2="BackgroundImageFix" result="effect1_dropShadow"/>
<feColorMatrix in="SourceAlpha" type="matrix" values="0 0 0 0 0 0 0 0 0 0 0 0 0 0 0 0 0 0 127 0"/>
<feOffset/>
<feGaussianBlur stdDeviation="0.5"/>
<feColorMatrix type="matrix" values="0 0 0 0 0 0 0 0 0 0 0 0 0 0 0 0 0 0 0.084 0"/>
<feBlend mode="normal" in2="effect1_dropShadow" result="effect2_dropShadow"/>
<feBlend mode="normal" in="SourceGraphic" in2="effect2_dropShadow" result="shape"/>
</filter>
</defs>
</svg>
